<?xml version="1.0" standalone="no"?>
<!DOCTYPE svg PUBLIC "-//W3C//DTD SVG 20010904//EN"
 "http://www.w3.org/TR/2001/REC-SVG-20010904/DTD/svg10.dtd">
<svg version="1.0" xmlns="http://www.w3.org/2000/svg"
 width="1986.000000pt" height="1986.000000pt" viewBox="0 0 1986.000000 1986.000000"
 preserveAspectRatio="xMidYMid meet">
<metadata>
Created by potrace 1.11, written by Peter Selinger 2001-2013
</metadata>
<g transform="translate(0.000000,1986.000000) scale(0.100000,-0.100000)"
fill="#000000" stroke="none">
<path d="M9568 19855 c-2 -1 -66 -5 -143 -9 -189 -8 -349 -21 -545 -42 -25 -3
-67 -7 -95 -10 -27 -3 -63 -7 -80 -9 -16 -3 -52 -7 -80 -10 -27 -3 -59 -7 -70
-10 -11 -2 -42 -7 -70 -10 -42 -5 -224 -35 -315 -51 -157 -28 -251 -46 -280
-54 -19 -5 -46 -11 -60 -14 -14 -2 -47 -10 -75 -16 -27 -6 -59 -13 -70 -16
-11 -2 -58 -13 -105 -25 -47 -11 -92 -22 -100 -24 -216 -43 -1007 -301 -1217
-396 -24 -10 -46 -19 -49 -19 -3 0 -20 -7 -37 -15 -18 -8 -54 -23 -82 -33 -27
-11 -75 -31 -105 -45 -30 -13 -118 -53 -195 -87 -615 -277 -1285 -679 -1880
-1129 -109 -83 -111 -84 -171 -133 -22 -18 -60 -49 -84 -68 -62 -49 -90 -73
-270 -230 -306 -266 -689 -649 -936 -935 -206 -239 -289 -342 -457 -565 -64
-85 -121 -159 -125 -165 -11 -14 -106 -152 -183 -265 -111 -163 -265 -408
-352 -560 -200 -350 -377 -702 -519 -1029 -28 -64 -56 -129 -63 -146 -63 -144
-206 -535 -274 -745 -38 -119 -84 -269 -86 -280 -1 -3 -8 -30 -17 -60 -30
-100 -118 -449 -144 -573 -14 -67 -27 -129 -29 -137 -27 -125 -77 -403 -94
-525 -6 -38 -13 -86 -15 -105 -10 -62 -35 -273 -41 -330 -9 -92 -19 -214 -30
-345 -27 -328 -27 -1047 0 -1410 11 -151 23 -288 30 -340 2 -16 6 -57 10 -90
10 -102 45 -354 59 -435 3 -14 12 -68 20 -120 16 -92 20 -116 31 -170 2 -14 7
-36 9 -50 10 -59 49 -241 66 -310 11 -41 21 -86 24 -100 44 -237 340 -1178
406 -1292 5 -10 10 -22 10 -28 0 -5 11 -34 25 -64 14 -30 25 -58 25 -61 0 -4
6 -21 14 -38 8 -18 47 -106 86 -197 119 -270 252 -538 415 -835 237 -431 585
-948 919 -1365 85 -107 268 -324 285 -340 4 -3 35 -39 71 -79 146 -168 506
-534 669 -681 46 -41 96 -86 111 -100 15 -14 45 -41 66 -60 194 -175 578 -477
858 -674 166 -117 513 -341 666 -429 334 -194 702 -382 995 -512 33 -15 78
-35 100 -45 22 -9 87 -37 145 -60 58 -23 119 -48 135 -56 170 -77 919 -323
1128 -369 10 -2 27 -7 37 -10 10 -3 28 -8 39 -10 24 -6 17 -4 166 -40 103 -24
259 -58 315 -69 14 -3 50 -10 80 -16 30 -6 70 -13 89 -16 18 -3 43 -8 55 -10
21 -4 57 -10 109 -18 15 -3 53 -9 85 -15 31 -5 75 -12 97 -15 22 -3 72 -9 110
-15 39 -5 95 -13 125 -16 30 -3 66 -8 80 -9 93 -12 342 -36 435 -41 424 -27
1071 -27 1410 0 181 14 282 23 348 31 20 2 54 6 75 8 20 3 60 8 87 11 28 3 62
8 75 9 93 12 147 19 230 32 52 9 106 17 120 19 40 6 193 33 216 39 12 2 37 7
55 10 54 9 87 16 153 31 33 8 72 16 86 18 14 3 43 10 65 15 22 6 51 13 65 16
207 37 958 264 1180 356 25 10 90 36 145 56 107 40 394 161 510 214 117 54
526 258 595 296 36 20 94 52 130 72 251 135 723 438 1014 652 164 120 438 333
512 399 22 20 53 47 70 60 34 29 151 129 174 151 9 8 66 60 126 115 149 137
427 415 559 560 61 66 112 122 115 125 29 25 396 468 445 536 11 15 25 32 30
38 6 6 43 56 83 111 40 55 79 107 86 116 44 54 227 328 401 599 263 411 628
1145 807 1625 17 44 36 96 44 115 85 227 197 571 259 795 45 166 100 382 108
425 3 14 13 57 22 95 21 88 21 89 45 215 11 58 22 114 24 125 2 11 7 40 11 65
4 25 9 54 11 65 6 32 44 266 49 305 5 39 12 91 20 165 4 28 8 61 10 75 2 14 7
57 10 95 4 39 8 86 10 105 5 45 16 178 20 238 27 384 27 1047 1 1387 -2 22 -6
85 -10 140 -4 55 -9 114 -11 130 -2 17 -6 58 -10 92 -3 34 -7 70 -9 80 -2 10
-7 52 -11 93 -4 41 -9 84 -11 95 -2 11 -6 37 -9 59 -3 21 -7 50 -9 65 -3 14
-10 62 -16 106 -7 44 -14 87 -15 96 -2 9 -6 34 -9 55 -3 22 -8 50 -11 64 -6
30 -13 66 -20 100 -3 14 -7 36 -10 50 -3 14 -8 41 -11 60 -5 35 -11 60 -59
270 -15 63 -29 122 -30 130 -9 41 -78 299 -108 405 -63 217 -214 670 -247 740
-6 11 -21 52 -36 90 -14 39 -31 84 -38 100 -7 17 -21 50 -31 75 -28 68 -54
129 -81 187 -13 28 -24 54 -24 57 0 31 -317 660 -445 881 -31 55 -69 120 -82
145 -14 25 -32 52 -39 61 -8 8 -14 18 -14 21 0 19 -309 488 -442 672 -79 109
-306 406 -318 416 -3 3 -21 25 -40 50 -19 25 -37 47 -40 50 -3 3 -28 32 -55
65 -54 65 -67 80 -200 230 -207 233 -603 629 -789 788 -11 10 -37 33 -56 50
-19 18 -66 59 -105 92 -38 33 -72 63 -75 66 -9 11 -305 245 -411 325 -111 84
-162 121 -329 236 -58 40 -109 76 -115 81 -16 13 -239 157 -255 164 -8 4 -44
26 -80 49 -73 47 -274 165 -365 214 -33 18 -105 57 -160 87 -212 116 -561 281
-850 403 -11 4 -40 17 -65 28 -78 34 -398 152 -580 214 -316 107 -597 187
-914 259 -49 11 -92 22 -95 23 -3 2 -24 7 -46 10 -22 4 -68 13 -102 21 -35 8
-78 17 -96 20 -28 5 -145 26 -282 51 -22 4 -44 8 -50 8 -9 2 -68 10 -150 22
-16 2 -41 7 -55 9 -14 3 -45 7 -70 10 -25 2 -61 6 -80 9 -19 3 -62 8 -95 11
-33 4 -73 8 -90 10 -49 6 -209 20 -350 30 -44 3 -111 8 -150 11 -71 6 -901 14
-907 9z"/>
</g>
</svg>
