
<svg width="719px" height="213px" viewBox="0 0 719 213" version="1.1" xmlns="http://www.w3.org/2000/svg" xmlns:xlink="http://www.w3.org/1999/xlink">
    <!-- Generator: Sketch 50 (54983) - http://www.bohemiancoding.com/sketch -->
    <desc>Created with Sketch.</desc>
    <defs></defs>
    <g id="Page-1" stroke="none" stroke-width="1" fill="none" fill-rule="evenodd">
        <g id="Group-2" transform="translate(3.000000, 3.000000)">
            <circle id="Oval" stroke="#eeeeee" stroke-width="5" cx="65" cy="103" r="65"></circle>
            <circle id="Oval" stroke="#eeeeee" stroke-width="5" cx="648" cy="103" r="65"></circle>
            <circle id="Oval" stroke="#eeeeee" stroke-width="5" cx="356.5" cy="103.5" r="103.5"></circle>
            <path d="M147,103.5 L234,103.5" id="Line" stroke="#eeeeee" stroke-width="4" stroke-linecap="square" transform="translate(190.500000, 103.500000) scale(1, -1) translate(-190.500000, -103.500000) "></path>
            <path id="Line-decoration-1" d="M234,103.5 L223.2,100.5 L223.2,106.5 L234,103.5 Z" stroke="#eeeeee" stroke-width="4" stroke-linecap="square"></path>
            <path d="M477,103.5 L564,103.5" id="Line" stroke="#eeeeee" stroke-width="4" stroke-linecap="square" transform="translate(520.500000, 103.500000) scale(1, -1) translate(-520.500000, -103.500000) "></path>
            <path id="Line-decoration-1" d="M564,103.5 L553.2,100.5 L553.2,106.5 L564,103.5 Z" stroke="#eeeeee" stroke-width="4" stroke-linecap="square"></path>
            <g id="analysis" transform="translate(610.000000, 68.000000)" fill="#eeeeee" fill-rule="nonzero">
                <path d="M66.616582,12.2897891 L54.7083789,0.383287109 C54.4630176,0.137925781 54.1302422,0 53.7832031,0 L14.9179687,0 C12.753293,0 10.9921875,1.76110547 10.9921875,3.92578125 L10.9921875,6.42048437 C4.5637207,8.94214453 0,15.2078223 0,22.5197207 C0,23.2423262 0.585988281,23.8283145 1.30859375,23.8283145 L17.2853457,23.8283145 C18.0079512,23.8283145 18.5939395,23.2423262 18.5939395,22.5197207 L18.5939395,6.54296875 C18.5939395,5.82036328 18.0079512,5.234375 17.2853457,5.234375 C16.024123,5.234375 14.7945684,5.37138477 13.609375,5.62917773 L13.609375,3.92578125 C13.609375,3.20422266 14.1964102,2.6171875 14.9179687,2.6171875 L52.4746094,2.6171875 L52.4746094,10.5996094 C52.4746094,12.7642852 54.2357148,14.5253906 56.4003906,14.5253906 L64.3828125,14.5253906 L64.3828125,63.0742187 C64.3828125,63.7957773 63.7957773,64.3828125 63.0742187,64.3828125 L14.9179687,64.3828125 C14.1964102,64.3828125 13.609375,63.7957773 13.609375,63.0742187 L13.609375,51.8638887 C13.609375,51.1412832 13.0233867,50.5552949 12.3007812,50.5552949 C11.5781758,50.5552949 10.9921875,51.1412832 10.9921875,51.8638887 L10.9921875,63.0742187 C10.9921875,65.2388945 12.753293,67 14.9179687,67 L63.0742187,67 C65.2388945,67 67,65.2388945 67,63.0742187 L67,13.2150957 C67,12.8680566 66.8620742,12.5351504 66.616582,12.2897891 Z M15.9766211,7.9095332 L15.9766211,21.211127 L2.67502734,21.211127 C3.30066602,14.1646113 8.93023633,8.53517188 15.9766211,7.9095332 Z M56.4003906,11.9082031 C55.678832,11.9082031 55.0917969,11.321168 55.0917969,10.5996094 L55.0917969,4.46753906 L62.5335078,11.9082031 L56.4003906,11.9082031 Z" id="Shape"></path>
                <path d="M13.56035,46.4395 C13.2815,46.16035 12.8945,46 12.5,46 C12.1055,46 11.7185,46.16035 11.4395,46.4395 C11.1605,46.7185 11,47.1055 11,47.5 C11,47.8945 11.16035,48.2815 11.4395,48.56035 C11.7185,48.8395 12.1055,49 12.5,49 C12.8945,49 13.2815,48.8395 13.56035,48.56035 C13.8395,48.2815 14,47.8945 14,47.5 C14,47.1055 13.8395,46.7185 13.56035,46.4395 Z" id="Shape"></path>
                <path d="M22.4999338,10 C21.768352,10 21.1750845,10.5932675 21.1750845,11.3248493 L21.1750845,26.1750845 L6.32484925,26.1750845 C5.59326749,26.1750845 5,26.768352 5,27.4999338 C5,37.1494733 12.8503942,45 22.4999338,45 C32.1494733,45 40,37.1494733 40,27.4999338 C40,17.8503942 32.1494733,10 22.4999338,10 Z M23.824783,12.7083893 C26.9262551,12.983693 29.7562656,14.2171277 32.0171208,16.1092774 L23.824783,24.3014827 L23.824783,12.7083893 Z M22.4999338,42.3503015 C14.7579122,42.3503015 8.38048535,36.3952366 7.70838932,28.824783 L22.4999338,28.824783 C22.8655922,28.824783 23.1965395,28.6766649 23.4363372,28.4371321 C23.4364697,28.4369996 23.4366022,28.4369996 23.4368671,28.4367347 L33.8911201,17.9826142 C36.049432,20.5616982 37.3503015,23.8817705 37.3503015,27.4999338 C37.3503015,35.6884295 30.6884295,42.3503015 22.4999338,42.3503015 Z" id="Shape"></path>
                <path d="M57.0848973,41 C54.9261096,41 53.1697945,42.7217204 53.1697945,44.8379858 C53.1697945,45.3683955 53.2802004,45.8738582 53.4794791,46.3337768 L45.9607853,53.7043727 C45.4441223,53.4575903 44.864165,53.3187831 44.251843,53.3187831 C43.6540068,53.3187831 43.0873609,53.4513215 42.5800941,53.6871018 L37.5872941,48.7926464 C37.7603416,48.3597216 37.8563921,47.8890566 37.8563921,47.3965151 C37.8563921,45.2802497 36.100077,43.5585293 33.9412894,43.5585293 C31.7825017,43.5585293 30.0261866,45.2802497 30.0261866,47.3965151 C30.0261866,47.9699102 30.1560375,48.5138807 30.3870286,49.002968 L25.5982054,53.6974644 C25.0880675,53.4582299 24.5172456,53.3240283 23.9151027,53.3240283 C21.7563151,53.3240283 20,55.0457488 20,57.1620142 C20,59.2782796 21.7563151,61 23.9151027,61 C26.0738904,61 27.8302055,59.2782796 27.8302055,57.1620142 C27.8302055,56.5687895 27.6921329,56.0066525 27.4460034,55.5047719 L32.2080734,50.8365018 C32.7310006,51.0908323 33.3193101,51.2345009 33.9415504,51.2345009 C34.6443113,51.2345009 35.3037451,51.0511731 35.8744366,50.7321086 L40.7264234,55.4885244 C40.4769009,55.9932196 40.3367402,56.5591945 40.3367402,57.1567689 C40.3367402,59.2730343 42.0930553,60.9947548 44.251843,60.9947548 C46.4106306,60.9947548 48.1669457,59.2730343 48.1669457,57.1567689 C48.1669457,56.5736509 48.0330492,56.0207251 47.7946194,55.5253691 L55.2431024,48.2236011 C55.7923913,48.5119617 56.4194603,48.6759717 57.0848973,48.6759717 C59.2436849,48.6759717 61,46.9542512 61,44.8379858 C61,42.7217204 59.2436849,41 57.0848973,41 Z M23.9149722,58.4414707 C23.1953764,58.4414707 22.609938,57.8675639 22.609938,57.1621421 C22.609938,56.4567203 23.1953764,55.8828135 23.9149722,55.8828135 C24.2653739,55.8828135 24.5831498,56.0195737 24.8177949,56.2406417 C24.8230151,56.2460149 24.8275827,56.2517719 24.8329333,56.2570171 C24.8391975,56.2631579 24.8459837,56.2682752 24.8523783,56.2741601 C25.0794543,56.5044393 25.2200065,56.817363 25.2200065,57.1621421 C25.2200065,57.867436 24.6345681,58.4414707 23.9149722,58.4414707 Z M33.9412894,48.6758437 C33.2216935,48.6758437 32.6362551,48.1019369 32.6362551,47.3965151 C32.6362551,46.6910933 33.2216935,46.1171865 33.9412894,46.1171865 C34.6608853,46.1171865 35.2463236,46.6910933 35.2463236,47.3965151 C35.2463236,48.1019369 34.6608853,48.6758437 33.9412894,48.6758437 Z M44.251582,58.4360975 C43.5319861,58.4360975 42.9465477,57.8621907 42.9465477,57.1567689 C42.9465477,56.4513471 43.5319861,55.8774403 44.251582,55.8774403 C44.9711778,55.8774403 45.5566162,56.4513471 45.5566162,57.1567689 C45.5566162,57.8621907 44.9711778,58.4360975 44.251582,58.4360975 Z M57.0846362,46.1171865 C56.3650404,46.1171865 55.779602,45.5432797 55.779602,44.8378579 C55.779602,44.1324361 56.3651709,43.5585293 57.0846362,43.5585293 C57.8042321,43.5585293 58.3896705,44.1324361 58.3896705,44.8378579 C58.3896705,45.5432797 57.8042321,46.1171865 57.0846362,46.1171865 Z" id="Shape"></path>
                <path d="M51.6259773,31 L44.3740227,31 C43.6152874,31 43,31.6717 43,32.5 C43,33.3283 43.61515,34 44.3740227,34 L51.6259773,34 C52.3847126,34 53,33.3283 53,32.5 C53,31.6717 52.3847126,31 51.6259773,31 Z" id="Shape"></path>
                <path d="M57.56035,31.4395 C57.2815,31.1605 56.8945,31 56.5,31 C56.1055,31 55.7185,31.16035 55.4395,31.4395 C55.1605,31.7185 55,32.1055 55,32.5 C55,32.8945 55.16035,33.2815 55.4395,33.56035 C55.7185,33.83935 56.104,34 56.5,34 C56.8945,34 57.2815,33.8395 57.56035,33.56035 C57.83935,33.2815 58,32.8945 58,32.5 C58,32.1055 57.8395,31.7185 57.56035,31.4395 Z" id="Shape"></path>
                <path d="M60.6634214,18 L44.3365786,18 C43.5985199,18 43,18.6717 43,19.5 C43,20.3283 43.5983863,21 44.3365786,21 L60.6634214,21 C61.4014801,21 62,20.3283 62,19.5 C62,18.6717 61.4014801,18 60.6634214,18 Z" id="Shape"></path>
                <path d="M60.6634214,24 L44.3365786,24 C43.5985199,24 43,24.6717 43,25.5 C43,26.3283 43.5983863,27 44.3365786,27 L60.6634214,27 C61.4014801,27 62,26.3283 62,25.5 C62,24.6717 61.4014801,24 60.6634214,24 Z" id="Shape"></path>
            </g>
            <g id="brain" transform="translate(347.000000, 82.000000)" fill="#eeeeee" fill-rule="nonzero">
                <path d="M75.8758109,36.9266019 C75.4408739,33.4281022 73.9852789,30.642015 73.3740734,29.5972857 C73.8162311,22.3183076 72.3793248,16.8374244 69.1015814,13.3013845 C66.5463263,10.5451589 63.561231,9.76534455 62.0453225,9.54522191 C59.7334451,4.63682821 55.8032962,3.68722936 53.4145404,3.91801687 C48.9419944,-0.265593161 44.8049955,-0.364989626 42.0785688,0.317987804 C40.2806308,0.769324543 38.8730318,1.61526099 37.9997597,2.25301942 C37.1269124,1.6144078 35.7184639,0.769324543 33.9209507,0.317987804 C31.194524,-0.366269409 27.0575251,-0.266446349 22.5849791,3.91801687 C20.1936748,3.68637618 16.2652248,4.63682821 13.954197,9.54522191 C12.4382885,9.76491796 9.45319318,10.5447323 6.89793802,13.3013845 C3.61934516,16.8374244 2.18328836,22.3183076 2.62544604,29.5972857 C2.01424056,30.6411619 0.55949506,33.4281022 0.123708524,36.9266019 C-0.368568858,40.8909424 0.383226627,46.4814604 6.5547455,51.0174373 C5.83947793,55.2577843 6.51651861,62.5572389 13.2593171,66.1466031 C12.9794113,67.689168 12.7937985,70.3647673 14.1648696,72.6517392 C15.2428679,74.4506872 17.0238162,75.6340597 19.4643907,76.1749813 C20.6965707,78.0848438 24.9440029,84 30.2443734,84 C30.2779281,84 30.3123323,84 30.345887,83.9991468 C33.1874191,83.9581938 35.7549918,82.27144 37.999335,78.9777056 C40.2445276,82.2705868 42.8121003,83.9581938 45.6527829,83.9991468 C50.9922298,84.0776402 55.2944538,78.0967885 56.534704,76.1749813 C58.9752785,75.6340597 60.7566515,74.4511138 61.8342251,72.6517392 C63.2057209,70.3647673 63.0192586,67.6887414 62.7397776,66.1466031 C69.4834256,62.5572389 70.1604663,55.2577843 69.4451987,51.0174373 C75.6171423,46.4814604 76.3693625,40.891369 75.8758109,36.9266019 Z M67.0271356,49.163032 C66.5174437,49.5043074 66.2761896,50.1305478 66.4248497,50.7277797 C66.5233901,51.1236592 68.740125,60.4515696 60.4865149,64.0038201 C59.7929092,64.3024361 59.4433455,65.0843834 59.6820512,65.8027681 C59.6922451,65.8339095 60.6695792,68.9510339 59.349902,71.1509805 C58.6346345,72.3450179 57.3047635,73.112461 55.3997902,73.4311269 C54.9750469,73.5019416 54.6038214,73.7596045 54.3863529,74.1324479 C53.2527132,76.0755848 49.5043544,81.0880675 45.7534471,81.0880675 C45.7326346,81.0880675 45.710548,81.0880675 45.6888861,81.0880675 C43.4330749,81.0530868 41.2830248,79.1833241 39.2990492,75.5308239 C39.044628,75.0632766 38.5018062,74.7723393 37.9708772,74.7723393 C37.4399482,74.7723393 36.952343,75.06285 36.6979218,75.5308239 C34.7147957,79.1833241 32.5647456,81.0530868 30.3080849,81.0880675 C26.5529302,81.1486439 22.7510537,76.0871028 21.6106181,74.1324479 C21.3931496,73.7596045 21.0210746,73.5019416 20.5971808,73.4311269 C18.6981539,73.1128876 17.3712561,72.3492838 16.6542896,71.1624986 C15.3184722,68.9506073 16.3068497,65.8296436 16.3157693,65.8023415 C16.5536255,65.0839568 16.2049113,64.3020095 15.5113056,64.0033935 C7.30101932,60.4694865 9.47782829,51.1206731 9.57382025,50.7273532 C9.72248038,50.1305478 9.48122623,49.5043074 8.97153438,49.1626054 C-1.84412678,41.920741 5.01377713,31.2213301 5.3093984,30.7721263 C5.48779055,30.5033719 5.57188971,30.182573 5.54937832,29.8604943 C5.07663912,23.2214077 6.23024169,18.3339171 8.97748078,15.3319732 C11.6189588,12.446063 14.816001,12.3718356 14.9413002,12.3701292 C15.5342417,12.3701292 16.0668697,12.007524 16.2873115,11.4550845 C17.9098305,7.38238895 20.5169044,6.80051436 21.8726847,6.80051436 C22.308896,6.80051436 22.6164101,6.86109075 22.7179237,6.88498003 C23.2123248,7.00869237 23.7343342,6.86407691 24.0945164,6.50189837 C27.0447828,3.54005434 30.0770246,2.40232742 33.1075674,3.11729942 C35.4266653,3.66461987 36.9366275,5.13167757 36.9468213,5.14191583 C37.218657,5.41493617 37.5877588,5.5685101 37.9717267,5.5685101 L38.0269433,5.5685101 C38.4113359,5.5685101 38.780013,5.41493617 39.0518487,5.14191583 C39.0662899,5.12741163 40.5248581,3.70983886 42.7815188,3.14332167 C45.8477401,2.3737456 48.917784,3.50208745 51.9041535,6.50189837 C52.2562656,6.85639821 52.778275,6.99930729 53.2671545,6.88839278 C53.6999678,6.78856972 57.5664053,6.07018497 59.7113585,11.4555111 C59.928827,12.0015517 60.4623045,12.3633037 61.0480254,12.3705558 C61.182669,12.3726887 64.3797111,12.446063 67.0211892,15.3323998 C69.7680035,18.3343437 70.9211814,23.2222609 70.4492916,29.8609209 C70.4267803,30.182573 70.5108794,30.5037985 70.6892716,30.7725529 C70.7079603,30.8002815 72.5369045,33.5910612 72.9973262,37.2887804 C73.5974883,42.113135 71.5888777,46.108617 67.0271356,49.163032 Z" id="Shape"></path>
                <path d="M61.925616,10.0413024 C61.6727043,9.24325297 60.8521181,8.8132252 60.0963485,9.07820082 C51.1037912,12.2347117 51,20.1478472 51,20.4828585 C51,21.3197175 51.6413875,21.994647 52.4357081,22 C52.4395209,22 52.44291,22 52.4458754,22 C53.2359597,22 53.8811599,21.3255166 53.8917509,20.4931185 C53.8955636,20.2455402 54.0514623,14.4093853 61.0105586,11.9670596 C61.7684464,11.7011918 62.1776804,10.8393519 61.925616,10.0413024 Z" id="Shape"></path>
                <path d="M67.7113287,49.4587465 C67.2390428,48.846819 66.3552113,48.7279466 65.7345872,49.1952663 C63.4363773,50.9264737 61.3579891,51.5433032 59.5614021,51.0314573 C56.3603536,50.120102 54.74764,45.9518056 54.7323516,45.909322 C54.4617066,45.188326 53.6497717,44.8194538 52.9221292,45.0874274 C52.1915943,45.353767 51.8176496,46.1560537 52.0878814,46.8782752 C52.1717607,47.1029482 54.1951936,52.3929755 58.7639291,53.7062911 C59.4452933,53.9023694 60.13988,54 60.8464493,54 C62.9492163,54 65.1606545,53.1348048 67.4448157,51.4129928 C68.0642002,50.94649 68.1832013,50.0706739 67.7113287,49.4587465 Z" id="Shape"></path>
                <path d="M44.4348501,50.432742 C43.8785637,49.8557527 42.9741281,49.8557527 42.4178417,50.432742 C41.8607194,51.0097314 41.8607194,51.9451208 42.4178417,52.5216773 C47.0499396,57.3189565 46.0890812,61.9539169 46.0397636,62.173372 C45.8541955,62.962458 46.3185337,63.7584696 47.0796137,63.9558493 C47.1949669,63.9852831 47.3115739,64 47.4260911,64 C48.0651309,64 48.64733,63.5515671 48.8090751,62.8802164 C48.872185,62.6218048 50.271051,56.4770628 44.4348501,50.432742 Z" id="Shape"></path>
                <path d="M66.9120088,36.4131655 C66.6378244,35.6973221 65.8020318,35.3268488 65.0461028,35.584763 C64.7509916,35.6847705 57.8002889,37.9889927 54.1086223,33.330747 C52.1910398,30.9115364 51.3672053,28.8397204 50.7048066,27.1752226 C49.8920762,25.1333683 49.1254702,23.2040732 46.5770928,23.0048679 C45.7818726,22.9413004 45.0703598,23.5077398 45.0050168,24.2685259 C44.9388196,25.0285021 45.5354483,25.6961638 46.3379288,25.7589215 C46.948224,25.8058886 47.1775652,26.1415415 47.9766291,28.1497899 C48.6663608,29.8823091 49.6102043,32.2549575 51.7776278,34.9899813 C54.3178907,38.1950811 57.8617882,39 60.7838593,39 C63.6128273,39 65.8584061,38.2448824 66.0433311,38.1817197 C66.7984059,37.9205665 67.1861932,37.1294137 66.9120088,36.4131655 Z" id="Shape"></path>
                <path d="M37.5,2 C36.6719895,2 36,2.652033 36,3.45545365 L36,75.5445463 C36,76.347967 36.6719895,77 37.5,77 C38.3280105,77 39,76.3488199 39,75.5449728 L39,3.45545365 C39,2.652033 38.3280105,2 37.5,2 Z" id="Shape"></path>
                <path d="M48.9992284,15.4536549 C48.9872386,14.6398162 48.3238012,13.9793282 47.4614214,14.0004949 C46.6239094,14.0121582 45.9555873,14.6825816 45.9675771,15.4964203 C45.9689093,15.5884308 46.051506,24.7816978 41.3257358,30.6120487 C40.8075086,31.2518019 40.9194137,32.1788177 41.5775223,32.6829312 C41.8555088,32.8967583 42.1858953,33 42.5149495,33 C42.963014,33 43.4070819,32.8077716 43.7054955,32.438434 C49.0907064,25.7955404 49.0050013,15.8731015 48.9992284,15.4536549 Z" id="Shape"></path>
                <path d="M51.5537348,60 C45.1798316,60 42.1983394,68.7252629 42.0746401,69.0972538 C41.822158,69.8543697 42.2309588,70.6712244 42.9879816,70.9250087 C43.1396403,70.9762739 43.2946881,71 43.4463468,71 C44.0508636,71 44.6147122,70.6182645 44.8180535,70.0128259 C45.4839963,68.0321226 47.9927199,62.8920387 51.5541585,62.8920387 C52.3522732,62.8920387 53,62.2442322 53,61.4460193 C53,60.6478065 52.3518495,60 51.5537348,60 Z" id="Shape"></path>
                <path d="M52.4502186,3.30289567 C51.8472047,2.79813074 50.9920358,2.93856756 50.5420732,3.61742031 L47.2696537,8.55424566 C46.8200906,9.23175237 46.9455686,10.1914788 47.5497814,10.6966924 C47.7939441,10.9017391 48.0788672,11 48.3625914,11 C48.7793863,11 49.1905867,10.7873257 49.4579268,10.3821677 L52.7303463,5.44534237 C53.1799094,4.76783567 53.0544314,3.80855796 52.4502186,3.30289567 Z" id="Shape"></path>
                <path d="M23,13 C19.6917161,13 17,15.6917161 17,19 C17,22.3082839 19.6917161,25 23,25 C26.3082839,25 29,22.3082839 29,19 C29,15.6917161 26.3082839,13 23,13 Z M23,22.0002197 C21.3454186,22.0002197 19.9997803,20.6545814 19.9997803,19 C19.9997803,17.3454186 21.3454186,15.9997803 23,15.9997803 C24.6545814,15.9997803 26.0002197,17.3454186 26.0002197,19 C25.9997803,20.6545814 24.6541419,22.0002197 23,22.0002197 Z" id="Shape"></path>
                <path d="M13,32 C9.69171611,32 7,34.6917161 7,38 C7,41.3082839 9.69171611,44 13,44 C16.3082839,44 19,41.3082839 19,38 C19.0004395,34.6917161 16.3082839,32 13,32 Z M13,41.0002197 C11.3454186,41.0002197 9.99978027,39.6545814 9.99978027,38 C9.99978027,36.3454186 11.3454186,34.9997803 13,34.9997803 C14.6545814,34.9997803 16.0002197,36.3454186 16.0002197,38 C16.0002197,39.6545814 14.6545814,41.0002197 13,41.0002197 Z" id="Shape"></path>
                <path d="M28,45 C24.6917161,45 22,47.6917161 22,51 C22,54.3082839 24.6917161,57 28,57 C31.3082839,57 34,54.3082839 34,51 C34,47.6917161 31.3082839,45 28,45 Z M28,54.0002197 C26.3454186,54.0002197 24.9997803,52.6545814 24.9997803,51 C24.9997803,49.3454186 26.3454186,47.9997803 28,47.9997803 C29.6545814,47.9997803 31.0002197,49.3454186 31.0002197,51 C31.0002197,52.6545814 29.6541419,54.0002197 28,54.0002197 Z" id="Shape"></path>
                <path d="M28,61 C24.6917161,61 22,63.6917161 22,67 C22,70.3082839 24.6917161,73 28,73 C31.3082839,73 34,70.3082839 34,67 C34,63.6917161 31.3082839,61 28,61 Z M28,70.0002197 C26.3454186,70.0002197 24.9997803,68.6545814 24.9997803,67 C24.9997803,65.3454186 26.3454186,63.9997803 28,63.9997803 C29.6545814,63.9997803 31.0002197,65.3454186 31.0002197,67 C30.9997803,68.6545814 29.6541419,70.0002197 28,70.0002197 Z" id="Shape"></path>
                <path d="M23.5,22 C22.6719895,22 22,22.6346102 22,23.4165629 L22,37.5834371 C22,38.3653898 22.6719895,39 23.5,39 C24.3288895,39 25,38.3662199 25,37.5834371 L25,23.4165629 C25,22.6346102 24.3280105,22 23.5,22 Z" id="Shape"></path>
                <path d="M27.5560726,36 L17.4443504,36 C16.6470588,36 16,36.6719895 16,37.5 C16,38.3280105 16.6470588,39 17.4443504,39 L27.5556494,39 C28.3537874,39 28.9999998,38.3280105 28.9999998,37.5 C29.000423,36.6719895 28.3533642,36 27.5560726,36 Z" id="Shape"></path>
                <path d="M27.5,36 C26.6719895,36 26,36.6719402 26,37.4998901 L26,46.5001099 C26,47.3280598 26.6719895,48 27.5,48 C28.3288895,48 29,47.3289387 29,46.5001099 L29,37.4998901 C29,36.6719402 28.3280105,36 27.5,36 Z" id="Shape"></path>
                <path d="M27.5,54 C26.6719895,54 26,54.6399364 26,55.4284518 L26,62.5715482 C26,63.3600636 26.6719895,64 27.5,64 C28.3288895,64 29,63.3609007 29,62.5715482 L29,55.4284518 C29,54.6399364 28.3280105,54 27.5,54 Z" id="Shape"></path>
            </g>
            <g id="wiping-swipe-for-floors" transform="translate(291.000000, 38.000000)" fill="#eeeeee" fill-rule="nonzero">
                <path d="M52.1108114,1.10030833 L38,28.0846607 C38.0809551,28.1070795 38.1617455,28.130879 38.2419594,28.1563844 C38.8377988,28.345644 39.3972372,28.5763295 39.9181335,28.8467351 C40.5478208,29.1736749 41.1202714,29.5591795 41.6316968,30 L55.7705089,2.9620376 C56.2917345,1.96529764 55.8951122,0.740471478 54.88445,0.22638402 C53.8737878,-0.287784666 52.6321194,0.103487144 52.1108114,1.10030833 Z" id="Shape"></path>
                <path d="M6.07337088,51.5442227 C8.3068689,53.5654051 11.0492995,55.3266071 14.2244908,56.7786301 C19.5865259,59.2310013 24.3054054,59.9551616 24.5035833,59.9848619 C24.5090768,59.9856846 24.5146524,59.9864251 24.5200639,59.9871655 C24.5826248,59.9957218 24.6455137,60 24.7085666,60 C24.7238173,60 24.7389861,59.9997532 24.7542369,59.9992595 C30.3951313,59.8144761 34.7916131,57.9294543 37.8213482,54.3965193 C41.8060596,49.7500295 43.2461902,42.7635523 42.9662651,36.7572667 C42.8859936,35.0376121 42.2756353,33.2823337 41.0775489,32.0299855 C40.9882582,31.9366888 40.8965077,31.8455311 40.8007395,31.7579934 C40.3803597,31.3741934 39.910128,31.0532493 39.4098048,30.7873454 C38.9761421,30.5569009 38.5198493,30.3678392 38.0528154,30.2169519 C37.8589012,30.1542605 37.664823,30.1068717 37.4709908,30.0719882 C37.2019707,30.0235299 36.9335246,30 36.6665543,30 C34.6887115,30 32.7926159,31.2473296 31.3442859,32.5213154 C29.8487278,33.8370132 28.3306215,35.2709362 26.6409031,36.394117 C24.789084,37.6250744 22.7560597,38.2449958 20.6388282,38.8500259 C17.904269,39.6314477 15.092718,40.1305112 12.2691141,40.4484935 C9.75864262,40.7310986 7.21447191,40.8954786 4.6775986,40.8954786 C3.67072063,40.8954786 2.66540054,40.8695628 1.66327819,40.8149341 C1.60514492,40.8118077 1.54701166,40.8089282 1.48896039,40.8048968 C1.45665502,40.8026755 1.42426766,40.8015237 1.39212628,40.8015237 C0.961169389,40.8015237 0.552186711,41.0021034 0.287676262,41.3482228 C0.00340542252,41.7200934 -0.0762100909,42.2101069 0.0758055238,42.6532252 C1.2187924,45.9858272 3.236648,48.977164 6.07337088,51.5442227 Z M4.12201186,43.6799006 C4.12283179,43.6799006 4.12365173,43.6799006 4.12455365,43.6799006 C4.26541818,43.6808056 4.41112031,43.6813815 4.56067612,43.6813815 C6.61132905,43.6813815 9.46879624,43.5903061 12.6744071,43.2241946 C19.4568945,42.4496837 24.98595,40.793461 29.171709,38.2902455 C29.2905993,38.2191623 29.4241664,38.1836207 29.5579795,38.1836207 C29.6843312,38.1836207 29.8107649,38.2152132 29.9252276,38.2783161 C32.3581333,39.6200119 36.1387633,41.6082031 38.8345397,42.5734211 C39.1681705,42.6928804 39.3746297,43.0283044 39.334289,43.3814169 C39.0123012,46.2041778 38.0991416,49.7965133 35.6996071,52.5868589 C33.2419393,55.4446678 29.612751,56.9951706 24.9092042,57.1973135 C24.8945274,57.198054 24.8798506,57.1983008 24.8651738,57.1983008 C24.8041708,57.1983008 24.7434137,57.1928708 24.6831487,57.1822577 C24.2091453,57.0982577 23.0398385,56.8720091 21.4707324,56.4385988 C21.9180059,56.240405 22.3806942,56.0028027 22.8483021,55.7378038 C23.26696,55.5004484 23.6892256,55.2418667 24.1072276,54.971191 C25.4003442,54.1342354 26.6525462,53.1839909 27.6267908,52.4020755 C27.8521905,52.2213233 27.6407297,51.8680463 27.3745794,51.9800188 C25.2448029,52.8766218 22.5237726,53.4762219 20.0891449,53.8703883 C19.3239013,53.9942903 18.5874373,54.0977065 17.9060728,54.1839278 C17.1090977,54.2847936 16.3885405,54.3617182 15.7872834,54.4193087 C15.6305942,54.3499532 15.473495,54.2795282 15.3158219,54.2069641 C13.9608822,53.5841631 12.6967092,52.9021262 11.5278125,52.1667768 C12.0379749,52.119388 12.5740472,52.034483 13.1177449,51.9234978 C13.6116727,51.822632 14.111258,51.70054 14.6029719,51.5665185 C16.050892,51.1719408 17.4277238,50.6737 18.3694991,50.3067658 C18.5487365,50.2369167 18.4848637,49.9686268 18.2934093,49.9870558 C16.5791749,50.1525876 14.2014506,50.167808 12.1709681,50.1378609 C11.5058383,50.1280705 10.8781794,50.113426 10.3231666,50.0976297 C9.5932621,50.0768149 8.98962728,50.05419 8.59245164,50.0377355 C8.35950861,49.8421744 8.13123921,49.6443096 7.90977526,49.443154 C7.6232086,49.1829269 7.34721909,48.9175166 7.08008485,48.6479104 C7.49226527,48.6059516 7.92018841,48.5401338 8.354753,48.4567097 C8.76111189,48.3786333 9.17271836,48.2853366 9.582111,48.1815913 C11.1989373,47.7722046 12.7764887,47.2045261 13.8200997,46.7980189 C13.9993371,46.7280875 13.9354643,46.4597977 13.7440099,46.4782266 C12.134645,46.6337212 9.9405858,46.6565929 7.99800007,46.6340503 C7.51883111,46.6284558 7.05515889,46.6202286 6.6192004,46.6104382 C6.13404593,46.5995782 5.68332865,46.5869083 5.28451315,46.5742384 C4.72007114,45.8214473 4.22130577,45.0400254 3.79067686,44.2312892 C3.65776569,43.981922 3.8405288,43.6799006 4.12201186,43.6799006 Z" id="Shape"></path>
                <circle id="Oval" cx="48.5" cy="50.5" r="3.5"></circle>
                <circle id="Oval" cx="41.5" cy="58.5" r="1.5"></circle>
                <circle id="Oval" cx="50.5" cy="57.5" r="1.5"></circle>
            </g>
            <g id="cloud-computing" transform="translate(32.000000, 76.000000)" fill="#eeeeee" fill-rule="nonzero">
                <path d="M53.1244841,18.6228157 C52.9845957,8.33022216 44.6314656,0 34.3837571,0 C29.8252796,0 25.4335167,1.67084389 22.017832,4.70478627 C18.969338,7.41239196 16.883967,11.0307078 16.0581151,15.0033132 C15.9977891,15.0026539 15.9379864,15.0021265 15.8783147,15.0021265 C7.12318531,15.0021265 0,22.1792923 0,31.0010632 C0,39.8228342 7.12318531,47 15.8784455,47 L26.9678399,47 C27.7567895,47 28.3966906,46.3555015 28.3966906,45.5602948 C28.3966906,44.7650881 27.7567895,44.1205896 26.9678399,44.1205896 L15.8784455,44.1205896 C8.6987291,44.1205896 2.85770145,38.2351897 2.85770145,31.0010632 C2.85770145,23.7669368 8.6987291,17.8815369 15.8784455,17.8815369 C16.2609468,17.8815369 16.6653014,17.9022379 17.1148025,17.9448264 C17.8766643,18.0166864 18.5606649,17.4706823 18.6644362,16.7059337 C19.1789743,12.9059241 21.0409687,9.41089108 23.9075685,6.86467372 C26.8009945,4.29459093 30.5214502,2.87927857 34.3836262,2.87927857 C43.1426814,2.87927857 50.2684839,10.0593452 50.2684839,18.884808 C50.2684839,19.2025742 50.2450601,19.5300976 50.2203277,19.8768715 L50.2097281,20.0242834 C50.1800231,20.4477959 50.3373157,20.8630017 50.639862,21.1587485 C50.9420157,21.4544952 51.3580169,21.6005886 51.7779438,21.5582637 C52.1579587,21.5196307 52.5413759,21.5002483 52.917465,21.5002483 C59.1067088,21.5002483 64.1422986,26.5739598 64.1422986,32.810353 C64.1422986,39.0466143 59.1068396,44.1203259 52.917465,44.1203259 L41.256478,44.1203259 C40.4675284,44.1203259 39.8276273,44.7648244 39.8276273,45.5600311 C39.8276273,46.3552378 40.4675284,46.9997363 41.256478,46.9997363 L52.917465,46.9997363 C60.6825143,46.9997363 67,40.6345225 67,32.810353 C66.9998691,25.0564612 60.7945297,18.734759 53.1244841,18.6228157 Z" id="Shape"></path>
                <path d="M34.5004728,7 C28.2295979,7 22.8616257,11.4620112 22.0139355,17.3788414 C21.9019997,18.1601935 22.4766491,18.8800837 23.2971451,18.9866614 C23.3659547,18.9955538 23.4342149,19 23.5016511,19 C24.2398777,19 24.8831993,18.4808422 24.985521,17.7650059 C25.6314521,13.2560481 29.7219832,9.85576043 34.5003355,9.85576043 C35.3286601,9.85576043 36,9.21655551 36,8.42788021 C36.0001373,7.63933569 35.3286601,7 34.5004728,7 Z" id="Shape"></path>
                <path d="M41.5063378,35.173316 L36.1270693,30.5925724 C35.1997353,29.8024328 33.8006759,29.8025619 32.8729356,30.5924433 L27.4936671,35.1734451 C26.8844735,35.692071 26.8319241,36.5833019 27.3759727,37.1640286 C27.9200213,37.7444971 28.8548043,37.7949783 29.4641333,37.2762233 L33.0212386,34.2470968 L33.0212386,51.5902723 C33.0212386,52.3689212 33.6832524,53 34.5000701,53 C35.3167525,53 35.9789017,52.3689212 35.9789017,51.5902723 L35.9789017,34.2468386 L39.5361424,37.2760942 C39.8181213,37.5163637 40.1701209,37.6344973 40.5207661,37.6344973 C40.9273466,37.6344973 41.332031,37.4758239 41.624303,37.1638995 C42.1680807,36.5831728 42.1153959,35.692071 41.5063378,35.173316 Z" id="Shape"></path>
            </g>
            <g id="add" transform="translate(304.000000, 111.000000)" fill="#eeeeee" fill-rule="nonzero">
                <path d="M29.3176453,13.3371888 L17.6627394,13.3371888 L17.6627394,1.6821725 C17.6627394,1.15123877 16.9417842,0 15.499937,0 C14.0580897,0 13.3371346,1.1513018 13.3371346,1.6821725 L13.3371346,13.3372518 L1.68216566,13.3372518 C1.15129712,13.3371888 0,14.0581469 0,15.499937 C0,16.9417271 1.15129712,17.6627482 1.68216566,17.6627482 L13.3371976,17.6627482 L13.3371976,29.3178275 C13.3371976,29.8486352 14.0580897,31 15.5,31 C16.9419103,31 17.6628024,29.8486352 17.6628024,29.3178275 L17.6628024,17.6627482 L29.3178343,17.6627482 C29.8486399,17.6627482 31,16.9418531 31,15.499937 C31,14.0580208 29.8485138,13.3371888 29.3176453,13.3371888 Z" id="Shape"></path>
            </g>
        </g>
    </g>
</svg>